<?xml version="1.0" standalone="no"?>
<!DOCTYPE svg PUBLIC "-//W3C//DTD SVG 20010904//EN"
 "http://www.w3.org/TR/2001/REC-SVG-20010904/DTD/svg10.dtd">
<svg version="1.0" xmlns="http://www.w3.org/2000/svg"
 width="700.000000pt" height="700.000000pt" viewBox="0 0 700.000000 700.000000"
 preserveAspectRatio="xMidYMid meet">
<metadata>
Created by potrace 1.14, written by Peter Selinger 2001-2017
</metadata>
<g transform="translate(0.000000,700.000000) scale(0.100000,-0.100000)"
fill="#000000" stroke="none">
<path d="M4542 6770 c-64 -15 -69 -23 -133 -230 -43 -141 -48 -149 -90 -167
-21 -9 -33 -8 -55 4 -198 103 -284 143 -310 143 -37 0 -86 -34 -167 -114 -92
-92 -137 -154 -137 -189 0 -19 31 -89 80 -184 l80 -153 -17 -36 c-16 -33 -27
-39 -98 -63 -44 -15 -84 -28 -90 -29 -60 -15 -145 -45 -163 -58 -36 -25 -44
-59 -47 -200 -5 -184 15 -251 79 -270 12 -3 84 -26 162 -50 135 -43 141 -46
158 -80 l16 -35 -80 -155 c-44 -86 -80 -167 -80 -182 0 -39 27 -77 116 -168
110 -111 147 -137 190 -136 23 1 88 29 182 78 142 74 147 76 185 64 21 -6 40
-18 43 -26 2 -8 7 -22 11 -31 8 -21 6 -18 21 -68 26 -89 61 -195 72 -215 26
-48 73 -61 230 -61 161 -1 213 13 238 64 6 12 32 88 57 170 46 145 47 148 84
166 38 18 39 18 79 -5 22 -13 94 -50 160 -83 106 -54 122 -60 151 -51 39 11
94 55 173 136 140 147 140 144 33 350 l-77 150 16 37 c8 20 21 39 28 42 7 2
74 23 148 46 170 53 188 62 207 107 23 56 22 314 -1 364 -18 37 -70 69 -136
83 -3 1 -57 18 -120 38 -112 35 -116 37 -129 73 -13 36 -12 39 67 193 82 162
89 189 59 235 -25 38 -133 151 -188 197 -79 66 -100 65 -265 -21 -76 -39 -144
-76 -150 -81 -6 -5 -27 -2 -51 7 -32 13 -43 23 -52 53 -88 287 -96 308 -134
328 -25 14 -62 18 -177 19 -80 1 -160 -2 -178 -6z m291 -1003 c74 -34 131 -88
164 -155 37 -76 40 -201 6 -274 -30 -66 -96 -133 -162 -165 -110 -54 -266 -31
-357 53 -139 129 -144 342 -11 473 97 97 239 124 360 68z"/>
<path d="M6056 6537 c-26 -23 -41 -59 -52 -127 -3 -19 -26 -134 -50 -254 -32
-160 -41 -222 -32 -227 22 -14 189 -42 197 -33 8 9 26 86 36 156 4 21 12 57
19 80 l12 43 41 -105 c79 -201 115 -393 114 -605 -1 -122 -3 -147 -15 -235
-34 -251 -150 -534 -297 -726 -37 -48 -48 -74 -31 -74 4 0 18 -10 32 -22 14
-13 47 -41 74 -62 l49 -40 24 30 c77 94 200 310 253 444 30 74 87 269 95 322
4 24 8 45 10 48 1 3 6 32 10 65 32 265 17 494 -46 731 -23 89 -80 247 -109
304 l-22 43 34 -7 c58 -11 81 -15 161 -32 78 -16 89 -15 93 9 1 7 10 50 19 96
17 88 14 99 -25 102 -8 0 -22 2 -30 4 -161 35 -478 95 -503 95 -21 0 -44 -9
-61 -23z"/>
<path d="M2511 5466 l-74 -74 54 -54 c103 -103 114 -93 -99 -93 -210 0 -301
-8 -497 -41 -146 -25 -370 -89 -530 -151 -253 -99 -585 -294 -769 -453 -193
-166 -385 -368 -365 -383 2 -2 39 -32 82 -67 l78 -63 32 39 c50 61 194 203
283 279 368 316 868 541 1334 600 30 4 64 9 75 12 11 2 119 7 240 9 l219 5
-19 -22 c-11 -12 -42 -44 -69 -70 l-48 -48 73 -75 c40 -42 77 -75 81 -74 9 4
207 198 296 291 54 57 62 70 62 104 0 21 -8 50 -17 63 -22 32 -332 340 -341
340 -4 0 -40 -34 -81 -74z"/>
<path d="M2202 4577 c-31 -9 -63 -43 -68 -71 -15 -76 -83 -376 -87 -384 -4 -5
-24 -12 -45 -16 -21 -3 -62 -13 -91 -23 l-52 -16 -37 40 c-20 22 -71 78 -112
123 -41 46 -86 96 -100 111 -31 34 -61 49 -95 49 -53 0 -348 -167 -379 -214
-22 -34 -20 -74 6 -154 12 -37 23 -69 23 -72 0 -3 18 -57 38 -120 l38 -116
-71 -71 -71 -71 -42 13 c-23 7 -105 34 -182 59 -170 55 -183 57 -221 41 -36
-15 -103 -112 -180 -260 -69 -133 -68 -159 8 -229 123 -115 240 -221 251 -228
9 -5 7 -25 -6 -75 -10 -37 -21 -79 -23 -92 -9 -43 15 -34 -254 -91 -169 -36
-180 -41 -206 -83 -16 -28 -19 -55 -21 -197 -2 -182 5 -231 37 -265 20 -22 97
-47 187 -61 21 -3 41 -8 44 -10 3 -2 21 -6 40 -9 19 -3 63 -13 99 -21 l66 -15
23 -96 23 -97 -48 -44 c-186 -169 -264 -241 -264 -245 -13 -59 -9 -76 38 -167
105 -206 163 -279 228 -282 14 -1 313 90 390 119 6 2 44 -27 83 -65 l72 -70
-55 -174 c-30 -95 -59 -184 -64 -198 -10 -27 2 -86 22 -106 24 -23 151 -101
249 -153 142 -75 158 -70 295 87 133 152 167 183 192 179 28 -5 163 -39 168
-42 1 -1 20 -85 42 -186 51 -233 53 -241 93 -264 29 -18 51 -20 222 -20 210 0
241 7 263 62 7 15 30 111 52 212 23 102 43 188 46 193 3 4 11 8 18 8 8 0 50
11 95 23 44 13 82 21 83 17 3 -7 109 -125 227 -252 77 -83 96 -84 225 -19 134
67 248 142 265 174 22 42 17 75 -47 269 l-61 186 62 62 c34 34 67 66 73 71 8
7 72 -10 196 -51 193 -63 239 -70 275 -45 46 32 213 331 213 380 0 32 -24 79
-48 97 -11 7 -57 48 -103 90 -46 42 -103 94 -127 116 l-43 39 22 89 c13 49 26
93 30 97 3 5 85 26 180 46 256 56 264 60 283 135 7 30 9 308 2 357 -11 74 -52
97 -237 133 -13 2 -44 9 -69 15 -25 5 -58 12 -75 15 -62 12 -78 16 -83 21 -3
3 -16 47 -29 97 l-23 93 47 44 c27 24 73 67 104 95 30 28 73 67 95 87 99 88
98 109 -12 307 -106 191 -141 222 -230 198 -52 -15 -318 -100 -344 -110 -10
-4 -39 18 -87 66 l-72 73 58 180 c73 223 75 236 48 276 -38 55 -323 219 -382
219 -40 0 -72 -24 -147 -109 -37 -42 -96 -107 -130 -145 l-63 -68 -94 26 c-51
14 -95 27 -97 29 -2 1 -21 87 -44 191 -22 104 -46 200 -53 215 -24 50 -60 59
-255 59 -97 0 -192 -5 -210 -11z m440 -1215 c359 -96 624 -361 719 -718 15
-54 22 -118 25 -204 3 -112 0 -147 -21 -255 -19 -98 -87 -249 -159 -350 -212
-296 -570 -451 -936 -403 -96 12 -262 68 -343 115 -312 182 -496 488 -502 835
-7 427 235 788 635 945 47 19 52 20 150 42 114 26 320 23 432 -7z"/>
<path d="M5575 4039 c-50 -6 -64 -12 -85 -38 -15 -17 -34 -56 -44 -87 -35
-112 -49 -134 -92 -154 l-42 -18 -103 48 c-146 67 -163 63 -293 -66 -129 -129
-133 -149 -63 -296 l46 -98 -18 -43 c-18 -42 -23 -46 -98 -72 -116 -41 -143
-55 -161 -83 -20 -31 -21 -36 -25 -152 -4 -123 8 -192 38 -222 12 -13 68 -39
124 -58 55 -19 103 -39 105 -45 2 -5 11 -26 20 -46 15 -36 15 -37 -34 -140
-70 -145 -66 -156 82 -301 121 -118 129 -120 286 -47 45 22 87 39 92 39 5 0
27 -7 49 -16 31 -12 43 -24 52 -52 42 -131 70 -188 99 -205 36 -22 160 -32
264 -22 102 9 122 29 165 157 18 53 38 101 44 106 7 5 29 15 49 23 36 12 41
11 135 -34 54 -26 112 -47 129 -47 39 0 93 38 175 124 117 123 120 136 53 278
l-46 98 17 48 c17 46 19 48 89 71 190 63 191 64 191 261 0 191 -3 196 -127
243 -51 20 -103 38 -114 42 -18 5 -54 70 -54 97 0 3 20 49 45 102 59 126 59
149 -3 223 -63 75 -149 152 -188 169 -41 17 -64 12 -174 -40 l-93 -43 -41 16
c-50 19 -50 19 -77 101 -44 131 -67 165 -123 176 -40 8 -191 10 -251 3z m200
-888 c102 -47 151 -153 120 -258 -29 -96 -106 -155 -203 -155 -68 -1 -97 10
-146 53 -101 89 -100 245 3 330 62 51 154 63 226 30z"/>
</g>
</svg>
